<mxfile host="app.diagrams.net" agent="Mozilla/5.0 (Windows NT 10.0; Win64; x64) AppleWebKit/537.36 (KHTML, like Gecko) Chrome/132.0.0.0 Safari/537.36" version="26.0.11">
  <diagram name="Page-1" id="VOwWQbB5w44p0ZTdNmQJ">
    <mxGraphModel dx="1290" dy="653" grid="1" gridSize="10" guides="1" tooltips="1" connect="1" arrows="1" fold="1" page="1" pageScale="1" pageWidth="850" pageHeight="1100" math="0" shadow="0">
      <root>
        <mxCell id="0" />
        <mxCell id="1" parent="0" />
        <mxCell id="rfUpwGUwCCR0LYAIKXI_-11" style="edgeStyle=orthogonalEdgeStyle;rounded=0;orthogonalLoop=1;jettySize=auto;html=1;exitX=0.55;exitY=0.95;exitDx=0;exitDy=0;exitPerimeter=0;entryX=0.75;entryY=0;entryDx=0;entryDy=0;" parent="1" source="rfUpwGUwCCR0LYAIKXI_-1" target="rfUpwGUwCCR0LYAIKXI_-5" edge="1">
          <mxGeometry relative="1" as="geometry" />
        </mxCell>
        <mxCell id="rfUpwGUwCCR0LYAIKXI_-1" value="SDN/ Gov List" style="ellipse;shape=cloud;whiteSpace=wrap;html=1;" parent="1" vertex="1">
          <mxGeometry x="460" y="20" width="120" height="80" as="geometry" />
        </mxCell>
        <mxCell id="rfUpwGUwCCR0LYAIKXI_-2" value="World Knowledge Base on AWS" style="ellipse;shape=cloud;whiteSpace=wrap;html=1;" parent="1" vertex="1">
          <mxGeometry x="280" y="20" width="120" height="80" as="geometry" />
        </mxCell>
        <mxCell id="rfUpwGUwCCR0LYAIKXI_-3" value="Payment Galaxy" style="rounded=0;whiteSpace=wrap;html=1;" parent="1" vertex="1">
          <mxGeometry x="140" y="160" width="90" height="60" as="geometry" />
        </mxCell>
        <mxCell id="rfUpwGUwCCR0LYAIKXI_-16" style="edgeStyle=orthogonalEdgeStyle;rounded=0;orthogonalLoop=1;jettySize=auto;html=1;entryX=0;entryY=0.5;entryDx=0;entryDy=0;" parent="1" source="rfUpwGUwCCR0LYAIKXI_-5" target="rfUpwGUwCCR0LYAIKXI_-15" edge="1">
          <mxGeometry relative="1" as="geometry" />
        </mxCell>
        <mxCell id="rfUpwGUwCCR0LYAIKXI_-5" value="LLM Based AWS analysis&lt;br&gt;(on AWS Bedrock)" style="rounded=0;whiteSpace=wrap;html=1;" parent="1" vertex="1">
          <mxGeometry x="360" y="155" width="160" height="90" as="geometry" />
        </mxCell>
        <mxCell id="rfUpwGUwCCR0LYAIKXI_-6" style="edgeStyle=orthogonalEdgeStyle;rounded=0;orthogonalLoop=1;jettySize=auto;html=1;entryX=0.013;entryY=0.387;entryDx=0;entryDy=0;entryPerimeter=0;" parent="1" source="rfUpwGUwCCR0LYAIKXI_-3" target="rfUpwGUwCCR0LYAIKXI_-5" edge="1">
          <mxGeometry relative="1" as="geometry" />
        </mxCell>
        <mxCell id="rfUpwGUwCCR0LYAIKXI_-7" value="Payment Transaction&amp;nbsp;&lt;div&gt;Stream&lt;/div&gt;" style="text;html=1;align=center;verticalAlign=middle;resizable=0;points=[];autosize=1;strokeColor=none;fillColor=none;" parent="1" vertex="1">
          <mxGeometry x="230" y="155" width="140" height="40" as="geometry" />
        </mxCell>
        <mxCell id="rfUpwGUwCCR0LYAIKXI_-10" style="edgeStyle=orthogonalEdgeStyle;rounded=0;orthogonalLoop=1;jettySize=auto;html=1;exitX=0.55;exitY=0.95;exitDx=0;exitDy=0;exitPerimeter=0;entryX=0.297;entryY=0.031;entryDx=0;entryDy=0;entryPerimeter=0;" parent="1" source="rfUpwGUwCCR0LYAIKXI_-2" target="rfUpwGUwCCR0LYAIKXI_-5" edge="1">
          <mxGeometry relative="1" as="geometry" />
        </mxCell>
        <mxCell id="rfUpwGUwCCR0LYAIKXI_-12" value="DB" style="shape=cylinder3;whiteSpace=wrap;html=1;boundedLbl=1;backgroundOutline=1;size=15;" parent="1" vertex="1">
          <mxGeometry x="230" y="245" width="60" height="65" as="geometry" />
        </mxCell>
        <mxCell id="rfUpwGUwCCR0LYAIKXI_-14" value="" style="endArrow=classic;startArrow=classic;html=1;rounded=0;exitX=0;exitY=0.75;exitDx=0;exitDy=0;entryX=1;entryY=0.5;entryDx=0;entryDy=0;entryPerimeter=0;" parent="1" source="rfUpwGUwCCR0LYAIKXI_-5" target="rfUpwGUwCCR0LYAIKXI_-12" edge="1">
          <mxGeometry width="50" height="50" relative="1" as="geometry">
            <mxPoint x="540" y="195" as="sourcePoint" />
            <mxPoint x="590" y="145" as="targetPoint" />
          </mxGeometry>
        </mxCell>
        <mxCell id="rfUpwGUwCCR0LYAIKXI_-18" value="" style="edgeStyle=orthogonalEdgeStyle;rounded=0;orthogonalLoop=1;jettySize=auto;html=1;" parent="1" source="rfUpwGUwCCR0LYAIKXI_-15" target="rfUpwGUwCCR0LYAIKXI_-17" edge="1">
          <mxGeometry relative="1" as="geometry" />
        </mxCell>
        <mxCell id="rfUpwGUwCCR0LYAIKXI_-23" style="edgeStyle=orthogonalEdgeStyle;rounded=0;orthogonalLoop=1;jettySize=auto;html=1;exitX=0.5;exitY=1;exitDx=0;exitDy=0;" parent="1" source="rfUpwGUwCCR0LYAIKXI_-15" edge="1">
          <mxGeometry relative="1" as="geometry">
            <mxPoint x="665" y="280" as="targetPoint" />
          </mxGeometry>
        </mxCell>
        <mxCell id="rfUpwGUwCCR0LYAIKXI_-15" value="Composite Score and output" style="rounded=0;whiteSpace=wrap;html=1;" parent="1" vertex="1">
          <mxGeometry x="600" y="160" width="130" height="80" as="geometry" />
        </mxCell>
        <mxCell id="rfUpwGUwCCR0LYAIKXI_-21" value="" style="edgeStyle=orthogonalEdgeStyle;rounded=0;orthogonalLoop=1;jettySize=auto;html=1;" parent="1" source="rfUpwGUwCCR0LYAIKXI_-17" target="rfUpwGUwCCR0LYAIKXI_-20" edge="1">
          <mxGeometry relative="1" as="geometry" />
        </mxCell>
        <mxCell id="rfUpwGUwCCR0LYAIKXI_-26" style="edgeStyle=orthogonalEdgeStyle;rounded=0;orthogonalLoop=1;jettySize=auto;html=1;exitX=0.25;exitY=1;exitDx=0;exitDy=0;entryX=0.75;entryY=0;entryDx=0;entryDy=0;" parent="1" source="rfUpwGUwCCR0LYAIKXI_-17" target="rfUpwGUwCCR0LYAIKXI_-24" edge="1">
          <mxGeometry relative="1" as="geometry" />
        </mxCell>
        <mxCell id="rfUpwGUwCCR0LYAIKXI_-17" value="Review" style="whiteSpace=wrap;html=1;rounded=0;" parent="1" vertex="1">
          <mxGeometry x="815" y="170" width="120" height="60" as="geometry" />
        </mxCell>
        <mxCell id="rfUpwGUwCCR0LYAIKXI_-19" value="Flagged?" style="text;html=1;align=center;verticalAlign=middle;resizable=0;points=[];autosize=1;strokeColor=none;fillColor=none;" parent="1" vertex="1">
          <mxGeometry x="740" y="175" width="70" height="30" as="geometry" />
        </mxCell>
        <mxCell id="rfUpwGUwCCR0LYAIKXI_-20" value="Decline Transaction" style="whiteSpace=wrap;html=1;rounded=0;" parent="1" vertex="1">
          <mxGeometry x="815" y="270" width="120" height="60" as="geometry" />
        </mxCell>
        <mxCell id="rfUpwGUwCCR0LYAIKXI_-22" value="No" style="text;html=1;align=center;verticalAlign=middle;resizable=0;points=[];autosize=1;strokeColor=none;fillColor=none;" parent="1" vertex="1">
          <mxGeometry x="870" y="230" width="40" height="30" as="geometry" />
        </mxCell>
        <mxCell id="rfUpwGUwCCR0LYAIKXI_-24" value="Transaction OK. Navigate to UI" style="rounded=0;whiteSpace=wrap;html=1;" parent="1" vertex="1">
          <mxGeometry x="605" y="280" width="120" height="60" as="geometry" />
        </mxCell>
        <mxCell id="rfUpwGUwCCR0LYAIKXI_-25" value="Not Flagged" style="text;html=1;align=center;verticalAlign=middle;resizable=0;points=[];autosize=1;strokeColor=none;fillColor=none;" parent="1" vertex="1">
          <mxGeometry x="570" y="240" width="90" height="30" as="geometry" />
        </mxCell>
        <mxCell id="rfUpwGUwCCR0LYAIKXI_-27" value="Successful" style="text;html=1;align=center;verticalAlign=middle;resizable=0;points=[];autosize=1;strokeColor=none;fillColor=none;" parent="1" vertex="1">
          <mxGeometry x="725" y="250" width="80" height="30" as="geometry" />
        </mxCell>
        <mxCell id="rfUpwGUwCCR0LYAIKXI_-29" value="Feedback Loop&lt;br&gt;(ML Model)" style="rounded=0;whiteSpace=wrap;html=1;" parent="1" vertex="1">
          <mxGeometry x="380" y="300" width="120" height="60" as="geometry" />
        </mxCell>
        <mxCell id="rfUpwGUwCCR0LYAIKXI_-30" value="" style="endArrow=classic;startArrow=classic;html=1;rounded=0;entryX=0.5;entryY=1;entryDx=0;entryDy=0;exitX=0.5;exitY=0;exitDx=0;exitDy=0;" parent="1" source="rfUpwGUwCCR0LYAIKXI_-29" target="rfUpwGUwCCR0LYAIKXI_-5" edge="1">
          <mxGeometry width="50" height="50" relative="1" as="geometry">
            <mxPoint x="390" y="300" as="sourcePoint" />
            <mxPoint x="440" y="250" as="targetPoint" />
          </mxGeometry>
        </mxCell>
        <mxCell id="rfUpwGUwCCR0LYAIKXI_-31" value="Path Ahead:&lt;div&gt;Phase 1. Creating AWS base solution LLM&lt;/div&gt;&lt;div&gt;Phase 2. Creating Vector DB&lt;/div&gt;&lt;div&gt;Phase 3. Feedback Loop&lt;/div&gt;" style="whiteSpace=wrap;html=1;aspect=fixed;align=left;" parent="1" vertex="1">
          <mxGeometry x="40" y="360" width="140" height="140" as="geometry" />
        </mxCell>
        <mxCell id="rfUpwGUwCCR0LYAIKXI_-33" style="edgeStyle=orthogonalEdgeStyle;rounded=0;orthogonalLoop=1;jettySize=auto;html=1;" parent="1" source="rfUpwGUwCCR0LYAIKXI_-32" edge="1">
          <mxGeometry relative="1" as="geometry">
            <mxPoint x="590" y="475" as="targetPoint" />
          </mxGeometry>
        </mxCell>
        <mxCell id="rfUpwGUwCCR0LYAIKXI_-32" value="[sender name: abc&lt;div&gt;sender bank: TCB,&lt;/div&gt;&lt;div&gt;receiver name: xyz,&lt;/div&gt;&lt;div&gt;receiver bank: S]&lt;/div&gt;" style="whiteSpace=wrap;html=1;aspect=fixed;" parent="1" vertex="1">
          <mxGeometry x="280" y="380" width="190" height="190" as="geometry" />
        </mxCell>
        <mxCell id="rfUpwGUwCCR0LYAIKXI_-34" value="&lt;div&gt;Embeddings/ Vector DB&lt;/div&gt;[[2.3,3.4]" style="whiteSpace=wrap;html=1;aspect=fixed;" parent="1" vertex="1">
          <mxGeometry x="595" y="395" width="160" height="160" as="geometry" />
        </mxCell>
      </root>
    </mxGraphModel>
  </diagram>
</mxfile>
